<svg width="44" height="37" viewBox="0 0 44 37" fill="none" xmlns="http://www.w3.org/2000/svg">
<path d="M4.71553 4.2155C3.77532 5.15569 3.02951 6.27187 2.52067 7.5003C2.01183 8.72873 1.74994 10.0454 1.74994 11.375C1.74994 12.7046 2.01183 14.0213 2.52067 15.2497C3.02951 16.4781 3.77532 17.5943 4.71553 18.5345L22 35.819L39.2845 18.5345C41.1833 16.6357 42.2501 14.0603 42.2501 11.375C42.2501 8.68966 41.1833 6.11431 39.2845 4.2155C37.3857 2.31668 34.8104 1.24993 32.125 1.24993C29.4397 1.24993 26.8643 2.31668 24.9655 4.2155L22 7.181L19.0345 4.2155C18.0943 3.27529 16.9782 2.52948 15.7497 2.02064C14.5213 1.5118 13.2047 1.24991 11.875 1.24991C10.5454 1.24991 9.22876 1.5118 8.00033 2.02064C6.7719 2.52948 5.65572 3.27529 4.71553 4.2155Z" fill="#363636" stroke="black" stroke-width="2" stroke-linecap="round" stroke-linejoin="round"/>
</svg>
