<svg width="14" height="14" viewBox="0 0 13 14" fill="none" xmlns="http://www.w3.org/2000/svg">
<path d="M6.5 1.3125C3.35918 1.3125 0.8125 3.85918 0.8125 7C0.8125 10.1408 3.35918 12.6875 6.5 12.6875C9.64082 12.6875 12.1875 10.1408 12.1875 7C12.1875 3.85918 9.64082 1.3125 6.5 1.3125ZM6.5 11.7227C3.89238 11.7227 1.77734 9.60762 1.77734 7C1.77734 4.39238 3.89238 2.27734 6.5 2.27734C9.10762 2.27734 11.2227 4.39238 11.2227 7C11.2227 9.60762 9.10762 11.7227 6.5 11.7227ZM6.57109 4.95986C7.24395 4.95986 7.70098 5.38897 7.75176 6.01865C7.75557 6.07197 7.8 6.1126 7.85332 6.1126H8.57314C8.60615 6.1126 8.63281 6.08594 8.63281 6.05293C8.63281 4.95225 7.76445 4.18164 6.56729 4.18164C5.17207 4.18164 4.36719 5.12363 4.36719 6.68008V7.34404C4.36719 8.88906 5.17207 9.81836 6.56729 9.81836C7.76064 9.81836 8.63281 9.07187 8.63281 8.02324C8.63281 7.99023 8.60615 7.96357 8.57314 7.96357H7.85205C7.79873 7.96357 7.75557 8.0042 7.75049 8.05625C7.69717 8.6415 7.24141 9.04395 6.56982 9.04395C5.74082 9.04395 5.27363 8.43584 5.27363 7.34785V6.68008C5.2749 5.57559 5.74336 4.95986 6.57109 4.95986Z" fill="#172D52"/>
</svg>
